REM DIRINDEX 1\2,1\3,1\4,1\5
REM DIRNAME cjc005,folder01,folder02,folder03,folder04
TITLE ""
FILE "P1Q_t_0772-0781.mp3" MP3
  TRACK 01 AUDIO
    TITLE "3:cjc005_3220"
    INDEX 01 00:00:00
  TRACK 02 AUDIO
    TITLE "0:"
    INDEX 01 00:01:01
  TRACK 03 AUDIO
    TITLE "4:cjc005_3221"
    INDEX 01 00:01:30
  TRACK 04 AUDIO
    TITLE "0:"
    INDEX 01 00:02:45
  TRACK 05 AUDIO
    TITLE "5:cjc005_3222"
    INDEX 01 00:02:67
  TRACK 06 AUDIO
    TITLE "0:"
    INDEX 01 00:06:73
  TRACK 07 AUDIO
    TITLE "3:cjc005_3223"
    INDEX 01 00:07:49
  TRACK 08 AUDIO
    TITLE "0:"
    INDEX 01 00:08:58
  TRACK 09 AUDIO
    TITLE "4:cjc005_3224"
    INDEX 01 00:09:04
  TRACK 10 AUDIO
    TITLE "0:"
    INDEX 01 00:10:37
  TRACK 11 AUDIO
    TITLE "5:cjc005_3225"
    INDEX 01 00:10:59
  TRACK 12 AUDIO
    TITLE "0:"
    INDEX 01 00:13:61
  TRACK 13 AUDIO
    TITLE "3:cjc005_3226"
    INDEX 01 00:14:37
  TRACK 14 AUDIO
    TITLE "0:"
    INDEX 01 00:15:58
  TRACK 15 AUDIO
    TITLE "4:cjc005_3227"
    INDEX 01 00:16:10
  TRACK 16 AUDIO
    TITLE "0:"
    INDEX 01 00:17:43
  TRACK 17 AUDIO
    TITLE "5:cjc005_3228"
    INDEX 01 00:17:69
  TRACK 18 AUDIO
    TITLE "0:"
    INDEX 01 00:21:70
  TRACK 19 AUDIO
    TITLE "3:cjc005_3229"
    INDEX 01 00:22:42
  TRACK 20 AUDIO
    TITLE "0:"
    INDEX 01 00:23:44
  TRACK 21 AUDIO
    TITLE "4:cjc005_3230"
    INDEX 01 00:23:67
  TRACK 22 AUDIO
    TITLE "0:"
    INDEX 01 00:24:67
  TRACK 23 AUDIO
    TITLE "5:cjc005_3231"
    INDEX 01 00:25:13
  TRACK 24 AUDIO
    TITLE "0:"
    INDEX 01 00:28:64
  TRACK 25 AUDIO
    TITLE "3:cjc005_3232"
    INDEX 01 00:29:40
  TRACK 26 AUDIO
    TITLE "0:"
    INDEX 01 00:30:59
  TRACK 27 AUDIO
    TITLE "4:cjc005_3233"
    INDEX 01 00:31:12
  TRACK 28 AUDIO
    TITLE "0:"
    INDEX 01 00:32:23
  TRACK 29 AUDIO
    TITLE "5:cjc005_3234"
    INDEX 01 00:32:48
  TRACK 30 AUDIO
    TITLE "0:"
    INDEX 01 00:36:64
  TRACK 31 AUDIO
    TITLE "3:cjc005_3235"
    INDEX 01 00:37:46
  TRACK 32 AUDIO
    TITLE "0:"
    INDEX 01 00:38:65
  TRACK 33 AUDIO
    TITLE "4:cjc005_3236"
    INDEX 01 00:39:21
  TRACK 34 AUDIO
    TITLE "0:"
    INDEX 01 00:40:34
  TRACK 35 AUDIO
    TITLE "5:cjc005_3237"
    INDEX 01 00:40:58
  TRACK 36 AUDIO
    TITLE "0:"
    INDEX 01 00:45:08
  TRACK 37 AUDIO
    TITLE "3:cjc005_3238"
    INDEX 01 00:45:61
  TRACK 38 AUDIO
    TITLE "0:"
    INDEX 01 00:46:68
  TRACK 39 AUDIO
    TITLE "4:cjc005_3239"
    INDEX 01 00:47:19
  TRACK 40 AUDIO
    TITLE "0:"
    INDEX 01 00:48:22
  TRACK 41 AUDIO
    TITLE "5:cjc005_3240"
    INDEX 01 00:48:48
  TRACK 42 AUDIO
    TITLE "0:"
    INDEX 01 00:51:73
  TRACK 43 AUDIO
    TITLE "3:cjc005_3241"
    INDEX 01 00:52:51
  TRACK 44 AUDIO
    TITLE "0:"
    INDEX 01 00:54:07
  TRACK 45 AUDIO
    TITLE "4:cjc005_3242"
    INDEX 01 00:54:30
  TRACK 46 AUDIO
    TITLE "0:"
    INDEX 01 00:55:71
  TRACK 47 AUDIO
    TITLE "5:cjc005_3243"
    INDEX 01 00:56:25
  TRACK 48 AUDIO
    TITLE "0:"
    INDEX 01 00:59:53
  TRACK 49 AUDIO
    TITLE "3:cjc005_3244"
    INDEX 01 01:00:25
  TRACK 50 AUDIO
    TITLE "0:"
    INDEX 01 01:01:40
  TRACK 51 AUDIO
    TITLE "4:cjc005_3245"
    INDEX 01 01:01:68
  TRACK 52 AUDIO
    TITLE "0:"
    INDEX 01 01:03:04
  TRACK 53 AUDIO
    TITLE "5:cjc005_3246"
    INDEX 01 01:03:27
  TRACK 54 AUDIO
    TITLE "0:"
    INDEX 01 01:07:49
  TRACK 55 AUDIO
    TITLE "3:cjc005_3247"
    INDEX 01 01:08:27
  TRACK 56 AUDIO
    TITLE "0:"
    INDEX 01 01:09:46
  TRACK 57 AUDIO
    TITLE "4:cjc005_3248"
    INDEX 01 01:10:04
  TRACK 58 AUDIO
    TITLE "0:"
    INDEX 01 01:11:05
  TRACK 59 AUDIO
    TITLE "5:cjc005_3249"
    INDEX 01 01:11:31
  TRACK 60 AUDIO
    TITLE "0:"
    INDEX 01 01:15:17
